<svg xmlns="http://www.w3.org/2000/svg" viewBox="0 0 512 512" fill="currentColor">
  <!-- Circle -->
  <path d="M256 48C141.1 48 48 141.1 48 256s93.1 208 208 208 208-93.1 208-208S370.9 48 256 48zm0 384c-97.2 0-176-78.8-176-176S158.8 80 256 80s176 78.8 176 176-78.8 176-176 176z"/>
  <!-- Head -->
  <circle cx="256" cy="168" r="32"/>
  <!-- Body -->
  <path d="M352 216c-22.4-8-48.8-14.4-72-16v-8c0-8.8-7.2-16-16-16h-16c-8.8 0-16 7.2-16 16v8c-23.2 1.6-49.6 8-72 16-9.6 3.2-14.4 13.6-11.2 23.2 3.2 9.6 13.6 14.4 23.2 11.2 20-6.4 43.2-12 60-14.4v36l-44 88c-4.8 9.6 0 20.8 8.8 24.8 9.6 4.8 20.8 0 24.8-8.8L296 312l24 44c4 8.8 15.2 13.6 24.8 8.8 8.8-4 13.6-15.2 8.8-24.8l-44-88v-36c16.8 2.4 40 8 60 14.4 9.6 3.2 20-1.6 23.2-11.2 3.2-9.6-1.6-20-11.2-23.2z"/>
</svg>
